<?xml version="1.0" encoding="UTF-8" standalone="no"?>
<svg
   width="1478"
   height="501"
   viewBox="0 0 1478 501"
   version="1.1"
   id="svg19"
   sodipodi:docname="playstore.svg"
   inkscape:version="1.3 (0e150ed6c4, 2023-07-21)"
   xmlns:inkscape="http://www.inkscape.org/namespaces/inkscape"
   xmlns:sodipodi="http://sodipodi.sourceforge.net/DTD/sodipodi-0.dtd"
   xmlns:xlink="http://www.w3.org/1999/xlink"
   xmlns="http://www.w3.org/2000/svg"
   xmlns:svg="http://www.w3.org/2000/svg"
   xmlns:sketch="http://www.bohemiancoding.com/sketch/ns">
  <sodipodi:namedview
     id="namedview19"
     pagecolor="#505050"
     bordercolor="#eeeeee"
     borderopacity="1"
     inkscape:showpageshadow="0"
     inkscape:pageopacity="0"
     inkscape:pagecheckerboard="0"
     inkscape:deskcolor="#505050"
     inkscape:zoom="0.50440081"
     inkscape:cx="738.5"
     inkscape:cy="250.79262"
     inkscape:window-width="1366"
     inkscape:window-height="745"
     inkscape:window-x="-8"
     inkscape:window-y="-8"
     inkscape:window-maximized="1"
     inkscape:current-layer="g19" />
  <!-- Generator: Sketch 3.1.1 (8761) - http://www.bohemiancoding.com/sketch -->
  <title
     id="title1">Play Store</title>
  <desc
     id="desc1">Created with Sketch.</desc>
  <defs
     id="defs8">
    <linearGradient
       x1="144.72234"
       y1="23.199526"
       x2="222.87791"
       y2="148.81686"
       id="linearGradient-1"
       gradientTransform="scale(0.95526647,1.0468283)"
       gradientUnits="userSpaceOnUse">
      <stop
         stop-color="#FF177B"
         offset="0%"
         id="stop1" />
      <stop
         stop-color="#FFEC73"
         offset="100%"
         id="stop2" />
    </linearGradient>
    <linearGradient
       x1="69.990021"
       y1="-83.066856"
       x2="0"
       y2="190.63695"
       id="linearGradient-2"
       gradientTransform="scale(0.73686413,1.3571023)"
       gradientUnits="userSpaceOnUse">
      <stop
         stop-color="#064AA2"
         offset="0%"
         id="stop3" />
      <stop
         stop-color="#63FFD4"
         offset="100%"
         id="stop4" />
    </linearGradient>
    <path
       id="path-3"
       d="M 139,127 5,0 C 1.8737825,0.72618685 0,3.06463 0,7 v 120 123 c 0,3.33887 1.3459716,5.32541 3,6 z" />
    <path
       id="path-5"
       d="M 5.5343706,127.7852 82.986448,85.238085 C 102.05922,74.669589 117.19585,66.282093 117.19585,66.282093 L 173.5202,35.944671 136.02203,-0.49203515 0.02361655,128.52402 c 1.51582795,0.48751 4.18751945,0.22103 6.27186595,-0.8077" />
    <linearGradient
       x1="117.79107"
       y1="74.30452"
       x2="3.7568798"
       y2="149.17909"
       id="linearGradient-7"
       gradientTransform="scale(1.1585813,0.86312458)"
       gradientUnits="userSpaceOnUse">
      <stop
         stop-color="#FF4521"
         offset="0%"
         id="stop5" />
      <stop
         stop-color="#8A33DB"
         offset="100%"
         id="stop6" />
    </linearGradient>
    <linearGradient
       x1="-0.075025693"
       y1="-36.091309"
       x2="94.789635"
       y2="147.3419"
       id="linearGradient-8"
       gradientTransform="scale(1.1591375,0.86271044)"
       gradientUnits="userSpaceOnUse">
      <stop
         stop-color="#00A3B5"
         offset="0%"
         id="stop7" />
      <stop
         stop-color="#D6FFA1"
         offset="100%"
         id="stop8" />
    </linearGradient>
    <path
       id="path-9"
       d="M 7.1290238,1.1468743 C 4.5494106,-0.23470283 1.9863666,-0.62992243 -0.08696509,-0.07134193 L 134.02429,127.1134 171.12697,92.002015 115.2,61.022558 c 0,0 -52.712983,-29.205435 -84.541392,-46.840254 z" />
  </defs>
  <g
     id="g19"
     transform="translate(-35.185909,-88.714767)">
    <g
       id="g20">
      <rect
         id="background"
         fill="#000000"
         sketch:type="MSShapeGroup"
         x="35.685909"
         y="89.214767"
         width="1477"
         height="500"
         rx="60"
         style="fill:none;fill-rule:evenodd;stroke:#ffffff;stroke-width:10;stroke-opacity:1;stroke-dasharray:none" />
      <g
         id="icon"
         transform="translate(95.68591,268.21477)"
         style="fill:none;fill-rule:evenodd;stroke:none;stroke-width:1">
        <path
           d="m 120.17925,61.022558 c 0,0 -101.905391,-56.4603099 -107.890453,-59.777403 C 6.2937759,-2.071938 0.32863071,-0.05976744 0.32863071,6.8732558 V 127.40426 250.38574 c 0,5.1898 4.26224069,7.44104 9.47053939,4.56224 5.1983399,-2.87879 110.3800799,-61.16201 110.3800799,-61.16201 0,0 14.28876,-7.91238 21.43314,-11.86858 11.49794,-6.36697 34.49383,-19.10092 34.49383,-19.10092 0,0 47.45229,-26.29767 53.76598,-29.78411 6.30373,-3.49639 5.69626,-8.28775 0.37842,-11.04701 -5.3278,-2.7493 -54.1444,-29.983335 -54.1444,-29.983335 z"
           id="orange"
           fill="url(#linearGradient-1)"
           sketch:type="MSShapeGroup"
           style="fill:url(#linearGradient-1)" />
        <g
           id="blue">
          <mask
             id="mask-4"
             sketch:name="Clip 2"
             fill="#ffffff">
            <use
               xlink:href="#path-3"
               id="use8" />
          </mask>
          <use
             id="Clip-2"
             fill="url(#linearGradient-2)"
             sketch:type="MSShapeGroup"
             xlink:href="#path-3"
             style="fill:url(#linearGradient-2)" />
          <path
             d="M 176,92 120,61 C 119.80388,61.451092 17.93823,4.8870822 12,2 5.9628188,-1.7592887 0,0.25657753 0,7 v 121 c 0,-0.0453 0,117.95275 0,123 0,5.36141 4.2605784,7.61678 9,5 5.663159,-3.15139 110.80388,-61.54165 111,-62 l 56,-31 c -0.29096,0.43197 47.14282,-25.91401 53,-29 6.75532,-3.90966 6.14809,-8.70982 1,-11 -5.4934,-3.2285 -54.29096,-30.512551 -54,-31"
             id="Fill-1"
             sketch:type="MSShapeGroup"
             mask="url(#mask-4)" />
        </g>
        <g
           id="red"
           transform="translate(2.983402,127.50388)">
          <mask
             id="mask-6"
             sketch:name="Clip 8"
             fill="#ffffff">
            <use
               xlink:href="#path-5"
               id="use9" />
          </mask>
          <g
             id="Clip-8" />
          <path
             d="m 117.0166,-66.503876 c -0.19612,0.451092 -102.061773,-56.112914 -108.0000025,-59.000004 -6.0371811,-3.75928 -12,-1.74342 -12,5 V 0.49612403 c 0,-0.0452803 0,117.95275597 0,122.99999597 0,5.36141 4.2605784,7.61679 9,5 C 11.679756,125.34474 116.82048,66.954471 117.0166,66.496124 l 56,-31 c -0.29096,0.43197 47.14281,-25.9140049 53,-29 6.75532,-3.9096596 6.14809,-8.7098164 1,-11 -5.4934,-3.2284998 -54.29096,-30.512551 -54,-31 z"
             id="Fill-7"
             fill="url(#linearGradient-7)"
             sketch:type="MSShapeGroup"
             mask="url(#mask-6)"
             style="fill:url(#linearGradient-7)" />
        </g>
        <g
           id="green"
           transform="translate(4.979253)">
          <mask
             id="mask-10"
             sketch:name="Clip 5"
             fill="#ffffff">
            <use
               xlink:href="#path-9"
               id="use10" />
          </mask>
          <use
             id="Clip-5"
             fill="url(#linearGradient-8)"
             sketch:type="MSShapeGroup"
             xlink:href="#path-9"
             style="fill:url(#linearGradient-8)" />
          <path
             d="m 171.02075,92 -56,-31 C 114.82463,61.451092 12.958977,4.8870822 7.0207469,2 c -6.03718116,-3.7592887 -12,-1.74342247 -12,5 v 121 c 0,-0.0453 0,117.95275 0,123 0,5.36141 4.2605784,7.61678 9,5 C 9.6839058,252.84861 114.82463,194.45835 115.02075,194 l 56,-31 c -0.29096,0.43197 47.14281,-25.91401 53,-29 6.75532,-3.90966 6.14809,-8.70982 1,-11 -5.4934,-3.2285 -54.29096,-30.512551 -54,-31"
             id="Fill-4"
             sketch:type="MSShapeGroup"
             mask="url(#mask-10)" />
        </g>
      </g>
      <g
         id="Google-play"
         transform="translate(382.68591,290.21477)"
         fill="#ffffff"
         sketch:type="MSShapeGroup"
         style="fill-rule:evenodd;stroke:none;stroke-width:1">
        <path
           d="m 664.61527,147.8698 -11.0737,10.51057 c -2.55916,1.41475 -5.1046,3.05724 -7.64318,4.22355 -7.69121,3.51272 -15.51278,4.39608 -22.463,4.39608 -7.39619,0 -18.99132,-0.48309 -30.81974,-9.08891 C 576.18349,146.26872 569,126.25516 569,108.81576 569,72.708546 598.22111,55 622.05632,55 c 8.32929,0 16.88499,2.097973 23.84207,6.521659 11.56769,7.694867 14.5591,17.694744 16.21947,23.050095 l -54.42853,22.118426 -17.82495,1.39405 c 5.77013,29.60626 25.68083,46.82482 47.68414,46.82482 10.99136,0 19.14912,-3.60934 26.63451,-7.3291 0,0 1.50256,-0.78674 0.43224,0.28985 z M 631.3595,88.477536 C 635.72771,86.851783 638,85.448356 638,82.182955 638,72.817508 627.65601,62 615.31105,62 606.16764,62 589,69.295044 589,94.626216 c 0,3.953219 0.46124,8.163504 0.69186,12.373784 z"
           id="path10" />
        <path
           d="m 551.02612,146.60314 c 0,9.02544 1.60023,10.42985 9.18419,11.13895 3.95269,0.46814 7.89171,0.67467 11.78969,1.14281 L 563.46547,164 h -40.66895 c 5.33408,-6.96701 6.25045,-7.66233 6.25045,-12.30241 v -5.18395 L 528.95807,8.3851902 H 511 L 528.28789,0 h 33.00292 c -7.15314,4.1719419 -9.29361,6.7122828 -10.20998,14.84275 l -0.0547,131.76039"
           id="Fill-2" />
        <path
           d="m 487.92911,66.39776 c 5.29121,4.384732 16.33104,13.691102 16.33104,31.340165 0,17.201645 -9.61974,25.310295 -19.32142,32.985305 -2.97673,3.02181 -6.45868,6.29831 -6.45868,11.3645 0,5.14191 3.48195,7.92969 5.98759,10.00848 l 8.32255,6.47729 c 10.11815,8.61115 19.34191,16.50642 19.34191,32.54476 C 512.1321,212.9662 491.15845,235 451.52565,235 418.13987,235 402,218.96854 402,201.78066 c 0,-8.36334 4.13055,-20.20969 17.75795,-28.32523 14.28284,-8.80388 33.63157,-9.98094 43.99549,-10.66928 -3.23616,-4.21265 -6.92976,-8.62492 -6.92976,-15.82496 0,-3.93731 1.1743,-6.28456 2.30764,-9.05169 -2.51929,0.24092 -5.05907,0.48873 -7.36671,0.48873 -24.43512,0 -38.24686,-18.37871 -38.24686,-36.48896 0,-10.683051 4.83377,-22.536283 14.76075,-31.126778 C 441.41433,59.879171 457.07629,58 469.52256,58 H 517 l -14.76075,8.39776 z m -16.209,102.85451 C 469.81362,169 468.6711,169 466.3723,169 c -2.10608,0 -14.65311,0.4625 -24.37138,3.78412 C 436.85959,174.6972 422,180.35235 422,197.14962 422,213.91185 438.04341,226 462.86216,226 485.16188,226 497,215.11716 497,200.46422 c 0,-12.06011 -7.66037,-18.42303 -25.27989,-31.21195 z m 6.5151,-44.73699 C 483.53773,119.16968 484,111.78603 484,107.59326 484,90.938865 474.16315,65 455.09449,65 c -5.94833,0 -12.39293,3.012477 -16.0503,7.671865 C 435.16247,77.495945 434,83.754211 434,89.772302 434,105.28072 442.95989,131 462.66757,131 c 5.75119,0 11.93746,-2.82034 15.56764,-6.48472 z"
           id="Fill-3" />
        <path
           d="M 344.33686,167 C 307.63648,167 288,138.0487 288,111.8352 288,81.206572 312.68586,55 347.7989,55 381.74197,55 403,81.920478 403,110.18559 403,137.79225 381.98828,167 344.33686,167 Z m 28.70159,-18.93461 C 378.64064,140.55848 380,131.18874 380,122.05532 380,101.3974 370.27854,62 341.54669,62 333.90545,62 326.2093,65.023619 320.66202,69.95872 311.61338,78.167671 310,88.482729 310,98.603163 310,121.77729 321.31424,160 349.39388,160 c 9.06238,0 18.31012,-4.44159 23.64457,-11.93461 z"
           id="path11" />
        <path
           d="M 221.33296,167 C 184.61044,167 165,138.0487 165,111.8352 165,81.206572 189.70299,55 224.81698,55 258.75365,55 280,81.920478 280,110.18559 280,137.79225 259.0069,167 221.33296,167 Z m 28.71581,-18.93461 C 255.6125,140.55848 257,131.18874 257,122.05532 257,101.3974 247.2463,62 218.52782,62 c -7.67246,0 -15.28996,3.023619 -20.8537,7.95872 C 188.6073,78.167671 187,88.482729 187,98.603163 187,121.77729 198.36787,160 226.41321,160 c 9.04621,0 18.28476,-4.44159 23.63556,-11.93461 z"
           id="Fill-5" />
        <path
           d="m 149.77498,160.08041 -31.08602,7.16447 C 106.09376,169.24346 94.783509,171 82.806732,171 22.847265,171 0,126.58168 0,91.817405 0,49.363086 32.370966,10 87.809081,10 c 11.729407,0 23.012179,1.735793 33.291729,4.557321 16.29199,4.60573 23.91232,10.283364 28.67417,13.609725 l -18.05792,17.261114 -7.61347,1.715047 5.42838,-8.706628 c -7.35236,-7.226708 -20.86832,-20.566728 -46.519097,-20.566728 -34.294947,0 -60.165608,26.237447 -60.165608,64.54246 0,41.140369 29.539966,79.839569 76.917978,79.839569 13.921367,0 21.088197,-2.81461 27.595377,-5.44251 v -35.2691 l -32.82448,1.77729 17.39828,-9.4051 H 158 l -5.63451,5.45634 c -1.51857,1.30011 -1.72471,1.74271 -2.15074,3.48542 -0.22675,1.99166 -0.43977,8.32627 -0.43977,10.55306 v 26.67313"
           id="Fill-6" />
        <path
           d="M 731.70241,148.93977 V 208 H 720 V 57.714228 h 11.70241 V 74.831043 C 739.32578,63.767987 753.25624,55 769.43533,55 798.45484,55 818,77.064268 818,111.99192 c 0,34.69401 -19.54516,57.21867 -48.56467,57.21867 -15.27416,0 -28.95782,-7.89531 -37.73292,-20.27082 z M 806,112.89237 C 806,86.290168 792.25832,66 767.89213,66 752.76046,66 738.28938,77.999114 732,88.463618 V 137.07808 C 738.28938,147.56342 752.76046,160 767.89213,160 792.25832,160 806,139.53623 806,112.89237 Z"
           id="path12" />
        <path
           d="m 834,16 h 12 v 151 h -12 z"
           id="Fill-8" />
        <path
           d="m 976.46327,197.6011 c 2.50245,1.1203 6.77375,1.8076 9.48188,1.8076 7.15769,0 12.14202,-2.93478 16.61905,-13.29927 l 8.5357,-19.38875 L 965,57 h 13.05387 L 1017.5994,152.08117 1056.761,57 H 1070 l -56.2263,132.74525 C 1007.9393,203.42253 998.75906,210 986.15083,210 c -3.78452,0 -8.77571,-0.67356 -11.69637,-1.57392 l 2.00881,-10.82498"
           id="Fill-9" />
        <path
           d="m 943.4375,166.85101 c -0.78603,-3.79355 -1.379,-7.13795 -1.81339,-9.92957 -0.35854,-2.7847 -0.56539,-5.63159 -0.56539,-8.52685 -4.03359,5.93563 -9.74956,10.87623 -17.05138,14.76652 -7.30872,3.91793 -14.252,5.83889 -23.77402,5.83889 -11.46642,0 -20.36788,-2.82616 -26.7182,-8.5614 C 867.1855,154.71027 864,146.95042 864,137.13141 c 0,-9.80519 4.61277,-17.76543 13.81072,-23.85307 9.19795,-6.11529 21.08496,-9.15566 35.79893,-9.15566 h 27.44907 V 90.530852 c 0,-7.828949 -2.66148,-13.985695 -7.97754,-18.449509 -5.33674,-4.470724 -12.82473,-6.73027 -22.53291,-6.73027 -8.87389,0 -16.07229,2.066068 -21.55383,6.087647 -5.43328,4.104497 -8.1706,9.190205 -8.1706,15.319311 h -12.04559 l -0.24822,-0.587344 C 868.09564,77.906413 871.86721,70.657898 879.88612,64.397503 887.87055,58.144017 898.33029,55 911.20329,55 c 12.83163,0 23.21553,3.095648 31.04137,9.273124 7.81895,6.115287 11.74222,14.953085 11.74222,26.506486 v 53.96654 c 0,3.87647 0.18616,7.62165 0.66881,11.27009 0.49645,3.65536 1.28937,7.3038 2.34431,10.83477 z M 901.6493,159 c 9.98924,0 17.16771,-2.25035 24.50463,-6.70242 7.2887,-4.4243 12.24887,-10.19602 14.84607,-17.18321 V 114 h -27.55651 c -10.52659,0 -19.24134,2.34758 -26.09602,7.08443 C 880.47901,125.80738 877,131.52354 877,138.1704 c 0,6.2718 2.20452,11.28646 6.58601,15.08566 C 887.98127,157.09693 893.98859,159 901.6493,159 Z"
           id="Fill-10" />
      </g>
      <g
         id="Get-it-on"
         transform="translate(378.68591,169.21477)"
         fill="#ffffff"
         sketch:type="MSShapeGroup"
         style="fill-rule:evenodd;stroke:none;stroke-width:1">
        <path
           d="m 0.04247104,35.311007 c 0,-21.540066 17.20077196,-35.39594908 38.58979796,-35.39594908 14.335125,0 23.710476,6.36396478 29.551988,14.15709808 l -10.470635,5.646176 c -3.967819,-5.13347 -10.918391,-9.126169 -19.081353,-9.126169 -14.548671,0 -25.356845,10.254123 -25.356845,24.718844 0,14.25323 10.808174,24.718844 25.356845,24.718844 7.501658,0 14.114691,-3.178778 17.421207,-6.152473 V 43.309223 H 34.003147 V 32.741068 H 68.84556 V 58.28665 c -7.164118,7.491919 -17.531424,12.516439 -30.213291,12.516439 -21.389026,0 -38.58979796,-14.048148 -38.58979796,-35.492082"
           id="path13" />
        <path
           d="M 85.525097,69.760618 V 0.95752896 H 136.60618 V 11.590206 H 98.604367 V 29.324223 H 135.82407 V 39.950457 H 98.604367 V 59.134384 H 136.60618 V 69.760618 H 85.525097"
           id="path14" />
        <path
           d="M 171.34475,69.760618 V 11.590206 H 149.11583 V 0.95752896 h 57.33591 V 11.590206 h -22.22893 v 58.170412 h -12.87806"
           id="path15" />
        <path
           d="m 252.32046,0.95752896 h 12.50966 V 69.760618 h -12.50966 z"
           id="path16" />
        <path
           d="M 300.61804,69.760618 V 11.590206 h -22.2358 V 0.95752896 h 57.33591 V 11.590206 H 313.4961 v 58.170412 h -12.87806"
           id="path17" />
        <path
           d="m 378.45946,35.362282 c 0,-20.4481 15.73313,-35.44722408 38.05368,-35.44722408 22.19507,0 38.04671,14.99912408 38.04671,35.44722408 0,20.441682 -15.85164,35.440807 -38.04671,35.440807 -22.32055,0 -38.05368,-14.999125 -38.05368,-35.440807 z m 62.54826,-0.524444 c 0,-14.030655 -9.63995,-24.49807 -24.4946,-24.49807 -14.96547,0 -24.50154,10.467415 -24.50154,24.49807 0,13.922678 9.53607,24.498069 24.50154,24.498069 14.85465,0 24.4946,-10.575391 24.4946,-24.498069 z"
           id="path18" />
        <path
           d="M 520.31158,69.760618 482.02105,20.56032 V 69.760618 H 469.15444 V 0.95752896 h 13.20339 L 519.87169,48.6177 V 0.95752896 h 12.87348 V 69.760618 h -12.43359"
           id="path19" />
      </g>
    </g>
  </g>
</svg>
